<svg width="560" height="386" viewBox="0 0 560 386" fill="none" xmlns="http://www.w3.org/2000/svg">
<path d="M329.965 14.6004C338.97 21.0093 347.035 28.7123 353.201 37.842C357.465 38.0219 361.458 37.9673 365.702 37.7456C380.746 37.3977 390.847 40.0234 402.812 49.4085C413.92 60.0018 419.687 71.8641 420 87.1926C419.739 101.669 414.138 113.371 404.472 124.109C396.751 131.018 386.909 135.918 376.536 137.079C370.938 136.425 369.187 134.917 365.116 131.145C335.672 106.424 297.69 100.415 260.267 102.988C236.278 105.867 212.511 116.338 194.311 131.917C189.616 135.608 186.705 137.329 180.638 137.025C166.691 134.094 154.672 125.06 146.946 113.41C140.012 100.412 138.264 86.4544 141.727 72.1319C146.8 58.0014 156.733 47.4239 170.384 40.9264C177.056 38.1151 182.107 37.7625 189.314 38.357C200.588 39.2637 200.588 39.2637 210.577 34.8539C212.846 32.1876 215.027 29.4461 217.12 26.6429C243.482 -7.44917 296.279 -5.79816 329.965 14.6004Z" fill="white"/>
<path d="M364.139 135.001C365.024 135.542 365.909 136.083 366.821 136.64C370.609 139.193 373.22 141.423 374.249 145.924C374.437 149.684 374.335 153.317 374.1 157.074C374.037 159.008 374.037 159.008 373.972 160.981C373.862 164.146 373.694 167.309 373.514 170.472C368.34 168.164 364.287 165.168 359.842 161.7C328.518 139.077 290.311 134.266 252.464 138.519C229.629 142.201 208.645 155.134 190.697 168.929C189.15 169.947 187.603 170.965 186.01 172.014C183.648 146.324 183.648 146.324 188.83 138.399C192.923 135.172 196.997 132.775 201.635 130.374C203.862 128.97 203.862 128.97 206.133 127.537C255.897 96.6026 317.346 101.386 364.139 135.001Z" fill="white"/>
<path d="M278.614 236.136C279.509 236.351 280.403 236.565 281.325 236.787C281.84 236.278 282.356 235.769 282.887 235.244C302.912 233.02 318.548 240.921 334.451 252.209C336.165 253.696 337.861 255.202 339.529 256.739C343.698 260.325 343.698 260.325 349.393 260.884C356.294 259.645 358.485 257.79 362.577 252.209C363.96 246.527 363.96 246.527 364.139 241.413C365.17 241.413 366.202 241.413 367.264 241.413C371.642 246.731 372.79 251.442 372.501 258.287C371.252 265.504 367.76 270.734 361.795 275.149C345.367 282.445 320.886 280.76 304.177 275.053C297.816 272.647 292.239 269.938 286.598 266.185C284.858 265.135 283.118 264.086 281.325 263.004C273.807 265.157 266.975 269.46 260.114 273.125C247.897 278.185 235.458 278.955 222.339 278.908C220.923 278.933 219.507 278.958 218.048 278.983C208.637 278.99 201.556 278.046 194.378 271.432C188.538 263.895 186.758 260.311 187.572 250.666C190.6 245.365 190.6 245.365 193.822 241.413C194.338 241.413 194.854 241.413 195.385 241.413C195.538 242.362 195.691 243.31 195.849 244.287C197.192 251.973 197.192 251.973 201.244 258.474C206.228 260.523 208.728 260.826 214.135 259.92C219.099 257.221 223.599 253.925 228.198 250.666C244.165 240.026 258.627 231.102 278.614 236.136Z" fill="white"/>
<path d="M326.052 179.725C331.262 181.249 332.862 181.768 336.014 185.894C337.318 192.84 337.259 199.251 333.572 205.364C328.216 208.346 324.873 208.444 318.826 207.485C314.818 204.24 313.019 201.823 311.928 196.786C311.48 190.632 312.23 187.943 315.798 182.713C320.388 179.725 320.388 179.725 326.052 179.725Z" fill="white"/>
<path d="M234.351 178.761C240.89 180.078 243.102 182.076 246.949 187.436C248.481 193.957 247.623 198.497 244.507 204.4C240.699 207.485 240.699 207.485 235.23 208.449C229.761 207.485 229.761 207.485 225.952 204.4C222.824 198.473 222.199 193.987 223.511 187.436C226.556 181.886 228.062 180.082 234.351 178.761Z" fill="white"/>
<path d="M242.261 168.929C247.184 172.382 248.318 174.27 249.683 180.11C249.876 182.21 249.876 182.21 250.074 184.352C249.107 183.111 248.14 181.871 247.144 180.592C242.698 175.301 241.69 175.209 234.644 174.424C231.306 174.312 231.306 174.312 228.198 175.098C224.187 179.489 224.187 179.489 221.948 184.352C220.874 181.749 220.874 181.749 220.385 178.183C222.322 173.958 224.106 171.222 227.808 168.351C233.106 166.898 236.964 167.622 242.261 168.929Z" fill="white"/>
<path d="M325.857 167.291C332.305 169.223 335.129 171.323 339.138 176.641C338.845 180.207 338.845 180.207 337.576 182.809C336.802 181.537 336.029 180.265 335.232 178.954C331.508 174.491 331.508 174.491 325.173 174.327C319.442 174.666 315.652 176.291 311.013 179.725C311.511 175.131 312.672 173.453 315.896 169.99C320.388 167.387 320.388 167.387 325.857 167.291Z" fill="white"/>
<path d="M51.264 309.32V324.296H24.192V336.2H44.16V350.504H24.192V377H5.376V309.32H51.264ZM83.2845 305.96V377H64.4685V305.96H83.2845ZM96.2077 350.024C96.2077 344.456 97.1997 339.592 99.1837 335.432C101.232 331.272 103.984 328.072 107.44 325.832C110.96 323.592 114.864 322.472 119.152 322.472C122.864 322.472 126.064 323.208 128.752 324.68C131.44 326.152 133.52 328.136 134.992 330.632V323.144H153.808V377H134.992V369.512C133.52 372.008 131.408 373.992 128.656 375.464C125.968 376.936 122.8 377.672 119.152 377.672C114.864 377.672 110.96 376.552 107.44 374.312C103.984 372.072 101.232 368.872 99.1837 364.712C97.1997 360.488 96.2077 355.592 96.2077 350.024ZM134.992 350.024C134.992 346.568 134.032 343.848 132.112 341.864C130.256 339.88 127.952 338.888 125.2 338.888C122.384 338.888 120.048 339.88 118.192 341.864C116.336 343.784 115.408 346.504 115.408 350.024C115.408 353.48 116.336 356.232 118.192 358.28C120.048 360.264 122.384 361.256 125.2 361.256C127.952 361.256 130.256 360.264 132.112 358.28C134.032 356.296 134.992 353.544 134.992 350.024ZM195.634 359.24L205.714 323.144H225.778L207.25 377H183.826L165.298 323.144H185.362L195.634 359.24ZM262.489 377.672C257.113 377.672 252.281 376.552 247.993 374.312C243.769 372.072 240.441 368.872 238.009 364.712C235.577 360.552 234.361 355.656 234.361 350.024C234.361 344.456 235.577 339.592 238.009 335.432C240.505 331.272 243.865 328.072 248.089 325.832C252.377 323.592 257.209 322.472 262.585 322.472C267.961 322.472 272.761 323.592 276.985 325.832C281.273 328.072 284.633 331.272 287.065 335.432C289.561 339.592 290.809 344.456 290.809 350.024C290.809 355.592 289.561 360.488 287.065 364.712C284.633 368.872 281.273 372.072 276.985 374.312C272.697 376.552 267.865 377.672 262.489 377.672ZM262.489 361.352C265.113 361.352 267.289 360.392 269.017 358.472C270.809 356.488 271.705 353.672 271.705 350.024C271.705 346.376 270.809 343.592 269.017 341.672C267.289 339.752 265.145 338.792 262.585 338.792C260.025 338.792 257.881 339.752 256.153 341.672C254.425 343.592 253.561 346.376 253.561 350.024C253.561 353.736 254.393 356.552 256.057 358.472C257.721 360.392 259.865 361.352 262.489 361.352ZM322.561 332.648C324.673 329.576 327.233 327.144 330.241 325.352C333.249 323.56 336.481 322.664 339.937 322.664V342.728H334.657C330.561 342.728 327.521 343.528 325.537 345.128C323.553 346.728 322.561 349.512 322.561 353.48V377H303.745V323.144H322.561V332.648ZM412.538 309.32V377H393.722V349.832H370.778V377H351.962V309.32H370.778V334.76H393.722V309.32H412.538ZM483.69 323.144V377H464.778V369.32C463.178 371.752 460.97 373.736 458.154 375.272C455.338 376.744 452.106 377.48 448.458 377.48C442.186 377.48 437.226 375.432 433.578 371.336C429.994 367.176 428.202 361.544 428.202 354.44V323.144H446.922V352.04C446.922 355.112 447.722 357.544 449.322 359.336C450.986 361.064 453.162 361.928 455.85 361.928C458.602 361.928 460.778 361.064 462.378 359.336C463.978 357.544 464.778 355.112 464.778 352.04V323.144H483.69ZM518.494 330.632C519.966 328.072 522.046 326.088 524.734 324.68C527.422 323.208 530.59 322.472 534.238 322.472C538.526 322.472 542.398 323.592 545.854 325.832C549.374 328.072 552.126 331.272 554.11 335.432C556.158 339.592 557.182 344.456 557.182 350.024C557.182 355.592 556.158 360.488 554.11 364.712C552.126 368.872 549.374 372.072 545.854 374.312C542.398 376.552 538.526 377.672 534.238 377.672C530.59 377.672 527.422 376.968 524.734 375.56C522.046 374.088 519.966 372.072 518.494 369.512V377H499.678V305.96H518.494V330.632ZM538.078 350.024C538.078 346.504 537.118 343.784 535.198 341.864C533.342 339.88 531.038 338.888 528.286 338.888C525.534 338.888 523.198 339.88 521.278 341.864C519.422 343.848 518.494 346.568 518.494 350.024C518.494 353.544 519.422 356.296 521.278 358.28C523.198 360.264 525.534 361.256 528.286 361.256C531.038 361.256 533.342 360.264 535.198 358.28C537.118 356.232 538.078 353.48 538.078 350.024Z" fill="white"/>
</svg>
