<svg width="109" height="109" viewBox="0 0 109 109" fill="none" xmlns="http://www.w3.org/2000/svg">
<path d="M73.9506 5.68374C77.456 8.17861 80.5957 11.1773 82.9963 14.7313C84.6561 14.8014 86.2106 14.7801 87.8625 14.6938C93.7189 14.5584 97.651 15.5805 102.309 19.234C106.633 23.3579 108.878 27.9757 109 33.9428C108.898 39.5784 106.718 44.1337 102.955 48.3139C99.9496 51.0036 96.1183 52.9111 92.08 53.363C89.901 53.1082 89.2193 52.5214 87.6344 51.053C76.1724 41.4295 61.3866 39.0901 46.8182 40.0918C37.4797 41.2125 28.2276 45.2886 21.1423 51.3532C19.3148 52.7904 18.1816 53.4601 15.8199 53.3419C10.3906 52.201 5.7116 48.6842 2.70403 44.1489C0.00457696 39.0891 -0.675943 33.6555 0.67249 28.0799C2.6471 22.5791 6.51389 18.4615 11.8281 15.9321C14.4253 14.8377 16.3915 14.7004 19.1972 14.9318C23.5859 15.2848 23.5859 15.2848 27.4746 13.5681C28.3579 12.5302 29.207 11.4629 30.0217 10.3717C40.2841 -2.89986 60.8373 -2.25714 73.9506 5.68374Z" fill="white"/>
<path d="M87.2542 52.5539C87.5987 52.7645 87.9432 52.975 88.2982 53.192C89.7728 54.1857 90.789 55.0539 91.1898 56.8061C91.2631 58.2698 91.2232 59.684 91.1319 61.1466C91.1072 61.8994 91.1072 61.8994 91.082 62.6674C91.0392 63.8997 90.9738 65.1311 90.9038 66.3622C88.8895 65.4639 87.3118 64.2974 85.5814 62.9476C73.3872 54.1408 58.514 52.2678 43.7807 53.9235C34.8913 55.3569 26.7225 60.3914 19.7357 65.7618C19.1335 66.1581 18.5313 66.5543 17.9109 66.9625C16.9916 56.9619 16.9916 56.9619 19.0086 53.8766C20.6022 52.6203 22.188 51.6872 23.9936 50.7528C24.8605 50.2061 24.8605 50.2061 25.7448 49.6483C45.1169 37.606 69.0382 39.468 87.2542 52.5539Z" fill="white"/>
<path d="M53.9606 91.9243C54.3088 92.0079 54.6569 92.0915 55.0156 92.1776C55.2163 91.9795 55.4171 91.7814 55.6239 91.5773C63.4194 90.7113 69.5061 93.7873 75.6969 98.1812C76.364 98.76 77.0246 99.3465 77.6738 99.9448C79.2967 101.341 79.2967 101.341 81.5136 101.558C84.2003 101.076 85.0533 100.354 86.6459 98.1812C87.1844 95.9692 87.1844 95.9692 87.2542 93.9787C87.6556 93.9787 88.0571 93.9787 88.4707 93.9787C90.1747 96.0487 90.6217 97.8828 90.5094 100.547C90.0233 103.357 88.6636 105.393 86.3417 107.112C79.9466 109.952 70.4163 109.296 63.9116 107.074C61.4356 106.137 59.2645 105.083 57.0685 103.622C56.3911 103.213 55.7136 102.805 55.0156 102.384C52.0892 103.222 49.4295 104.897 46.7588 106.324C42.0027 108.293 37.1603 108.593 32.0532 108.575C31.502 108.585 30.9508 108.594 30.3829 108.604C26.7193 108.607 23.9629 108.239 21.1685 105.665C18.8952 102.731 18.2021 101.335 18.5191 97.5808C19.6977 95.5171 19.6977 95.5171 20.9522 93.9787C21.153 93.9787 21.3537 93.9787 21.5605 93.9787C21.6201 94.3478 21.6797 94.717 21.7411 95.0973C22.2639 98.0894 22.2639 98.0894 23.8415 100.62C25.7817 101.418 26.7548 101.536 28.8598 101.183C30.7921 100.133 32.5441 98.8492 34.3343 97.5808C40.5501 93.4385 46.1797 89.9647 53.9606 91.9243Z" fill="white"/>
<path d="M72.4276 69.9644C74.4557 70.5575 75.0786 70.7598 76.3053 72.3658C76.813 75.0698 76.7902 77.5654 75.3549 79.9453C73.2698 81.1062 71.9684 81.1442 69.6143 80.7708C68.0543 79.5075 67.3539 78.5669 66.9293 76.6058C66.7547 74.2105 67.0466 73.1635 68.4358 71.1276C70.2226 69.9644 70.2226 69.9644 72.4276 69.9644Z" fill="white"/>
<path d="M36.7294 69.5892C39.2752 70.102 40.1363 70.8798 41.6336 72.9662C42.23 75.5048 41.896 77.2719 40.6832 79.5701C39.2005 80.7709 39.2005 80.7709 37.0716 81.1461C34.9426 80.7709 34.9426 80.7709 33.4599 79.5701C32.2422 77.2625 31.999 75.5162 32.5095 72.9662C33.6951 70.8058 34.2813 70.1033 36.7294 69.5892Z" fill="white"/>
<path d="M39.8088 65.7619C41.7251 67.1058 42.1665 67.841 42.6981 70.1145C42.7733 70.9317 42.7733 70.9317 42.8501 71.7654C42.4738 71.2825 42.0974 70.7996 41.7096 70.3021C39.9788 68.2421 39.5864 68.2063 36.8434 67.9006C35.5442 67.8573 35.5442 67.8573 34.3343 68.1633C32.773 69.8727 32.773 69.8727 31.9012 71.7654C31.483 70.7523 31.483 70.7523 31.2929 69.364C32.0467 67.7195 32.7413 66.6542 34.1822 65.5367C36.2449 64.9712 37.7466 65.253 39.8088 65.7619Z" fill="white"/>
<path d="M72.3514 65.124C74.8616 65.8761 75.9611 66.6938 77.5218 68.7637C77.4077 70.152 77.4077 70.152 76.9135 71.1651C76.6124 70.6698 76.3113 70.1745 76.0011 69.6642C74.5514 67.927 74.5514 67.927 72.0853 67.8631C69.8543 67.9948 68.3789 68.6274 66.5728 69.9644C66.7669 68.1762 67.2186 67.5227 68.4737 66.1746C70.2225 65.1615 70.2225 65.1615 72.3514 65.124Z" fill="white"/>
</svg>
