<svg width="280" height="280" viewBox="0 0 280 280" fill="none" xmlns="http://www.w3.org/2000/svg">
<path d="M189.965 14.6004C198.97 21.0093 207.035 28.7123 213.201 37.842C217.465 38.0219 221.458 37.9673 225.702 37.7456C240.746 37.3977 250.847 40.0234 262.812 49.4085C273.92 60.0018 279.687 71.8641 280 87.1926C279.739 101.669 274.138 113.371 264.472 124.109C256.751 131.018 246.909 135.918 236.536 137.079C230.938 136.425 229.187 134.917 225.116 131.145C195.672 106.424 157.69 100.415 120.267 102.988C96.278 105.867 72.5112 116.338 54.3106 131.917C49.6159 135.608 46.7049 137.329 40.6384 137.025C26.6913 134.094 14.672 125.06 6.94614 113.41C0.0117573 100.412 -1.73637 86.4544 1.7275 72.1319C6.7999 58.0014 16.7329 47.4239 30.3842 40.9264C37.0559 38.1151 42.1065 37.7625 49.314 38.357C60.5877 39.2637 60.5877 39.2637 70.5769 34.8539C72.846 32.1876 75.0271 29.4461 77.12 26.6429C103.482 -7.44917 156.279 -5.79816 189.965 14.6004Z" fill="black"/>
<path d="M224.139 135.001C225.024 135.542 225.909 136.083 226.821 136.64C230.609 139.193 233.22 141.423 234.249 145.924C234.437 149.684 234.335 153.317 234.1 157.074C234.037 159.008 234.037 159.008 233.972 160.981C233.862 164.146 233.694 167.309 233.514 170.472C228.34 168.164 224.287 165.168 219.842 161.7C188.518 139.077 150.311 134.266 112.464 138.519C89.629 142.201 68.645 155.134 50.6972 168.929C49.1503 169.947 47.6034 170.965 46.0096 172.014C43.6482 146.324 43.6482 146.324 48.8295 138.399C52.9231 135.172 56.9967 132.775 61.635 130.374C63.8617 128.97 63.8617 128.97 66.1334 127.537C115.897 96.6026 177.346 101.386 224.139 135.001Z" fill="black"/>
<path d="M138.614 236.136C139.509 236.351 140.403 236.565 141.325 236.787C141.84 236.278 142.356 235.769 142.887 235.244C162.912 233.02 178.548 240.922 194.451 252.209C196.165 253.696 197.861 255.202 199.529 256.739C203.698 260.325 203.698 260.325 209.393 260.884C216.294 259.645 218.485 257.79 222.577 252.209C223.96 246.527 223.96 246.527 224.139 241.413C225.17 241.413 226.202 241.413 227.264 241.413C231.642 246.731 232.79 251.442 232.501 258.287C231.252 265.504 227.76 270.734 221.795 275.149C205.367 282.445 180.886 280.76 164.177 275.053C157.816 272.647 152.239 269.938 146.598 266.185C144.858 265.135 143.118 264.086 141.325 263.004C133.807 265.157 126.975 269.46 120.114 273.125C107.897 278.185 95.4575 278.955 82.3386 278.908C80.9226 278.933 79.5066 278.958 78.0477 278.983C68.6368 278.99 61.5561 278.046 54.3777 271.432C48.538 263.895 46.7578 260.311 47.5721 250.666C50.5995 245.365 50.5995 245.365 53.8223 241.413C54.3379 241.413 54.8535 241.413 55.3848 241.413C55.5379 242.362 55.691 243.31 55.8487 244.287C57.1917 251.973 57.1917 251.973 61.2443 258.474C66.2282 260.523 68.7281 260.826 74.1353 259.92C79.0991 257.221 83.5995 253.925 88.1981 250.666C104.165 240.026 118.627 231.102 138.614 236.136Z" fill="black"/>
<path d="M186.052 179.725C191.262 181.249 192.862 181.768 196.014 185.894C197.318 192.84 197.259 199.251 193.572 205.364C188.216 208.346 184.873 208.444 178.826 207.485C174.818 204.239 173.019 201.823 171.928 196.786C171.48 190.632 172.23 187.943 175.798 182.713C180.388 179.725 180.388 179.725 186.052 179.725Z" fill="black"/>
<path d="M94.351 178.761C100.891 180.078 103.103 182.076 106.949 187.436C108.481 193.957 107.623 198.497 104.507 204.4C100.699 207.485 100.699 207.485 95.2299 208.449C89.761 207.485 89.761 207.485 85.9523 204.4C82.8242 198.473 82.1995 193.986 83.5108 187.436C86.5565 181.886 88.0622 180.082 94.351 178.761Z" fill="black"/>
<path d="M102.261 168.929C107.184 172.382 108.318 174.27 109.683 180.11C109.877 182.21 109.877 182.21 110.074 184.352C109.107 183.111 108.14 181.871 107.144 180.592C102.698 175.301 101.69 175.209 94.6439 174.424C91.3064 174.312 91.3064 174.312 88.1984 175.098C84.1877 179.489 84.1877 179.489 81.9483 184.352C80.874 181.749 80.874 181.749 80.3857 178.183C82.322 173.958 84.1063 171.222 87.8078 168.351C93.1066 166.898 96.9642 167.622 102.261 168.929Z" fill="black"/>
<path d="M185.857 167.291C192.305 169.223 195.129 171.323 199.138 176.641C198.845 180.207 198.845 180.207 197.576 182.809C196.802 181.537 196.029 180.265 195.232 178.954C191.508 174.491 191.508 174.491 185.173 174.327C179.442 174.666 175.652 176.291 171.013 179.725C171.511 175.131 172.672 173.453 175.896 169.99C180.388 167.387 180.388 167.387 185.857 167.291Z" fill="black"/>
</svg>
